<?xml version="1.0" standalone="no"?>
<!DOCTYPE svg PUBLIC "-//W3C//DTD SVG 20010904//EN"
 "http://www.w3.org/TR/2001/REC-SVG-20010904/DTD/svg10.dtd">
<svg version="1.0" xmlns="http://www.w3.org/2000/svg"
 width="500.000000pt" height="500.000000pt" viewBox="0 0 500.000000 500.000000"
 preserveAspectRatio="xMidYMid meet">
<metadata>
Created by potrace 1.14, written by Peter Selinger 2001-2017
</metadata>
<g transform="translate(0.000000,500.000000) scale(0.100000,-0.100000)"
fill="#000000" stroke="none">
<path d="M1730 3959 c-630 -364 -1154 -668 -1164 -678 -10 -9 -29 -38 -42 -66
l-24 -50 0 -855 c0 -954 -6 -881 71 -920 38 -20 39 -22 39 -74 0 -37 6 -60 18
-74 9 -11 343 -208 742 -438 l725 -419 75 -3 75 -3 1144 660 c629 363 1149
666 1157 672 22 18 19 141 -3 161 -10 9 -344 203 -742 433 -622 359 -732 419
-773 423 -26 2 -48 6 -48 7 0 2 9 22 20 46 19 43 20 69 20 905 0 673 -3 864
-12 876 -21 24 -83 58 -109 58 -13 0 -539 -298 -1169 -661z m1193 628 c1 -5
-509 -304 -1133 -664 -624 -360 -1146 -665 -1158 -676 -13 -12 -34 -40 -45
-62 l-22 -40 0 -862 c0 -475 -3 -863 -7 -863 -4 0 -14 10 -22 22 -14 20 -16
118 -16 863 0 564 4 853 11 878 6 22 25 54 42 72 19 19 323 201 732 436 385
222 896 517 1135 656 403 233 475 269 483 240z m-3 -954 l0 -808 -258 -148
c-141 -81 -310 -179 -376 -217 -65 -39 -125 -70 -132 -70 -8 0 -14 -4 -14 -9
0 -10 -311 -191 -328 -191 -6 0 -12 -4 -14 -8 -2 -7 -157 -99 -318 -189 -19
-11 -116 -68 -216 -126 -262 -153 -587 -338 -596 -340 -11 -3 -11 1604 -1
1614 7 6 281 166 433 251 25 14 171 99 325 188 154 89 350 202 435 250 85 48
169 96 187 106 499 289 702 404 711 404 7 0 12 4 12 9 0 10 128 91 143 91 4 0
7 -363 7 -807z m220 -971 c339 -191 1369 -788 1384 -803 10 -9 16 -23 14 -31
-3 -7 -522 -312 -1154 -678 l-1149 -664 -60 0 -60 -1 -440 254 c-242 140 -568
328 -725 418 -262 151 -331 196 -319 206 2 2 122 72 267 156 215 123 267 149
282 141 56 -30 68 -25 702 341 335 193 616 358 624 366 13 14 13 18 -2 41 -14
21 -14 26 -3 33 8 5 113 67 234 138 269 158 272 158 405 83z m1388 -937 c-20
-18 -2251 -1303 -2294 -1321 -43 -18 -97 -13 -148 13 -54 28 -1400 805 -1429
825 -19 14 -27 28 -27 49 l0 29 38 -24 c74 -48 1398 -809 1432 -823 22 -10 55
-14 90 -11 48 4 78 18 245 115 194 113 1162 672 1765 1020 327 188 335 192
338 167 2 -15 -2 -32 -10 -39z"/>
<path d="M1950 1960 c-607 -351 -1106 -642 -1108 -648 -3 -9 763 -456 782
-455 6 0 42 18 80 41 l69 40 -49 31 c-74 47 -85 48 -158 7 -51 -29 -66 -33
-75 -23 -8 11 -1 19 32 37 23 13 93 54 155 91 l114 66 -55 32 c-30 17 -59 31
-65 31 -6 0 -79 -40 -164 -89 -128 -75 -156 -87 -173 -78 -16 8 -17 12 -5 19
8 5 62 36 119 69 57 34 99 64 95 68 -5 5 -32 21 -59 36 l-50 27 -120 -70 c-98
-57 -124 -68 -139 -60 -17 9 -13 14 37 42 31 17 57 33 57 36 0 3 -26 21 -57
39 l-58 33 -62 -33 c-46 -25 -65 -31 -73 -23 -14 14 -52 -10 445 276 215 124
640 369 945 545 305 176 603 348 662 382 59 33 114 61 122 61 38 0 20 -22 -51
-62 -42 -23 -78 -47 -80 -53 -3 -10 88 -65 106 -65 5 0 48 22 94 49 71 41 88
47 102 37 14 -10 1 -21 -94 -75 -61 -35 -111 -66 -111 -70 0 -3 25 -20 56 -37
l57 -32 109 64 c112 66 123 70 146 55 10 -6 -5 -19 -52 -45 -36 -20 -66 -40
-66 -44 0 -4 25 -21 55 -37 l55 -30 74 40 c56 30 78 37 86 29 9 -9 -3 -20 -45
-44 l-56 -32 63 -39 c35 -21 66 -38 69 -39 4 0 37 18 74 39 l67 39 -38 25
c-22 13 -194 113 -384 221 -190 109 -349 202 -354 207 -6 5 -12 9 -15 8 -4 0
-503 -287 -1111 -639z m1121 596 c0 -16 -2175 -1265 -2186 -1255 -7 7 -5 13 5
19 228 138 2159 1248 2168 1247 7 -1 13 -6 13 -11z"/>
<path d="M2950 2321 c-25 -15 -45 -31 -45 -35 0 -5 24 -22 54 -39 l55 -31 54
30 c30 16 55 33 56 38 2 13 -85 64 -109 64 -11 0 -40 -12 -65 -27z"/>
<path d="M2800 2233 l-63 -36 54 -33 c30 -18 59 -34 66 -34 9 0 107 52 121 65
1 1 -24 18 -57 38 l-59 35 -62 -35z"/>
<path d="M3085 2216 c-11 -7 -35 -22 -54 -33 l-33 -21 61 -35 61 -36 60 36
c33 20 59 37 58 38 -14 13 -112 65 -121 64 -7 0 -21 -6 -32 -13z"/>
<path d="M3302 2158 c-60 -34 -60 -36 18 -80 l45 -26 48 28 c75 43 75 45 16
79 -30 17 -58 31 -64 31 -5 0 -34 -14 -63 -32z"/>
<path d="M2648 2147 c-32 -18 -56 -36 -55 -41 2 -4 28 -22 58 -39 l55 -31 57
33 c31 18 57 36 57 39 0 4 -26 21 -58 39 l-57 31 -57 -31z"/>
<path d="M2901 2109 l-54 -31 24 -19 c13 -10 41 -26 62 -35 37 -17 39 -17 80
6 55 30 68 41 62 50 -7 12 -95 60 -109 60 -6 0 -35 -14 -65 -31z"/>
<path d="M3483 2082 c-35 -20 -63 -39 -63 -42 0 -3 29 -21 64 -41 l63 -36 67
36 c36 20 66 38 66 41 0 4 -109 69 -130 77 -3 1 -33 -15 -67 -35z"/>
<path d="M3143 2067 c-29 -17 -50 -34 -45 -38 4 -3 31 -19 60 -35 l52 -29 56
30 c31 17 58 33 60 37 5 8 -99 68 -117 67 -8 0 -38 -15 -66 -32z"/>
<path d="M2487 2053 c-65 -39 -66 -35 21 -83 l42 -24 43 24 c86 48 86 44 17
84 -33 20 -62 36 -63 35 -1 0 -28 -16 -60 -36z"/>
<path d="M2752 2023 l-63 -35 56 -34 c31 -19 60 -34 66 -34 5 0 35 14 66 32
l56 32 -23 15 c-13 9 -39 26 -59 38 l-36 21 -63 -35z"/>
<path d="M3325 1990 c-27 -16 -54 -32 -60 -34 -13 -6 22 -34 78 -64 l44 -23
68 39 67 40 -64 36 c-36 20 -69 36 -74 36 -5 0 -31 -14 -59 -30z"/>
<path d="M2992 1980 c-29 -17 -51 -34 -48 -38 2 -4 29 -20 59 -37 l56 -29 43
23 c46 25 75 48 67 54 -20 16 -100 57 -111 57 -7 0 -37 -14 -66 -30z"/>
<path d="M2338 1967 c-32 -18 -58 -35 -58 -39 0 -3 25 -21 56 -39 l57 -32 56
31 c30 17 57 34 58 39 2 4 -23 22 -55 40 l-57 31 -57 -31z"/>
<path d="M2607 1941 c-27 -16 -53 -33 -58 -38 -5 -5 16 -22 51 -41 l60 -33 59
32 c33 18 58 36 55 40 -4 7 -111 70 -116 68 -2 0 -25 -13 -51 -28z"/>
<path d="M2847 1897 c-31 -18 -56 -36 -54 -41 2 -6 28 -23 58 -40 l54 -29 58
33 c65 37 65 38 -13 83 l-46 25 -57 -31z"/>
<path d="M3143 1886 c-40 -22 -73 -43 -73 -46 0 -3 29 -22 64 -42 l64 -38 76
43 c41 23 76 45 76 49 0 7 -123 79 -131 77 -2 -1 -37 -20 -76 -43z"/>
<path d="M2177 1874 l-58 -36 29 -18 c89 -54 87 -54 152 -18 32 17 57 35 54
39 -4 7 -110 69 -116 69 -2 0 -29 -17 -61 -36z"/>
<path d="M2443 1847 c-29 -18 -53 -34 -53 -37 0 -4 83 -55 111 -68 7 -3 119
60 119 68 0 7 -106 70 -117 69 -4 0 -32 -15 -60 -32z"/>
<path d="M2687 1803 c-32 -19 -57 -36 -55 -38 9 -9 110 -65 116 -65 4 0 34 15
66 34 l59 33 -62 37 c-34 20 -63 36 -64 35 -1 0 -28 -16 -60 -36z"/>
<path d="M2027 1787 c-31 -18 -56 -36 -54 -40 1 -5 27 -22 58 -39 l55 -30 57
32 c31 17 57 35 57 39 0 3 -26 21 -58 38 l-57 32 -58 -32z"/>
<path d="M2690 1624 c-184 -106 -336 -197 -337 -201 -3 -9 109 -73 126 -73 9
0 666 375 684 390 8 7 -113 81 -130 79 -4 0 -159 -88 -343 -195z"/>
<path d="M2293 1758 c-29 -16 -53 -33 -53 -37 0 -4 25 -21 56 -39 l56 -32 59
33 c32 17 59 34 59 37 0 7 -109 70 -118 69 -4 0 -31 -14 -59 -31z"/>
<path d="M2538 1717 c-32 -17 -58 -35 -58 -38 0 -4 25 -21 56 -39 l57 -32 56
30 c30 17 57 34 58 39 2 6 -71 54 -107 70 -3 1 -31 -12 -62 -30z"/>
<path d="M1877 1701 c-27 -16 -53 -33 -58 -38 -5 -5 16 -22 51 -41 l60 -33 60
34 c45 25 57 36 48 44 -17 12 -106 63 -110 62 -2 0 -25 -13 -51 -28z"/>
<path d="M2165 1686 c-11 -7 -35 -22 -54 -33 l-33 -20 55 -32 c30 -17 60 -31
67 -31 7 0 37 14 67 31 l55 32 -53 33 c-59 37 -74 39 -104 20z"/>
<path d="M3035 1612 c-55 -32 -230 -134 -390 -226 -159 -92 -294 -171 -298
-175 -7 -7 436 -273 471 -284 10 -3 802 454 802 462 0 6 -472 281 -481 281 -2
0 -49 -27 -104 -58z"/>
<path d="M2400 1638 c-93 -56 -90 -46 -21 -85 l61 -34 59 32 c33 18 58 36 55
40 -4 8 -108 69 -115 69 -2 0 -20 -10 -39 -22z"/>
<path d="M1713 1607 c-29 -17 -53 -34 -53 -37 0 -3 25 -20 56 -39 l55 -33 44
23 c52 27 80 48 74 52 -18 14 -111 67 -117 66 -4 0 -31 -15 -59 -32z"/>
<path d="M1981 1578 l-53 -31 23 -18 c13 -10 41 -26 62 -35 37 -17 39 -17 80
6 55 30 68 41 62 50 -7 12 -95 60 -109 60 -6 0 -35 -15 -65 -32z"/>
<path d="M2223 1537 c-29 -17 -53 -34 -53 -37 0 -3 27 -20 59 -38 l59 -32 56
32 c31 18 56 35 56 39 0 8 -106 69 -117 68 -5 0 -32 -15 -60 -32z"/>
<path d="M1595 1538 c-11 -6 -37 -22 -59 -36 l-39 -24 62 -35 61 -34 55 31
c30 17 55 35 55 40 0 7 -101 71 -111 70 -2 0 -13 -6 -24 -12z"/>
<path d="M1828 1492 c-26 -15 -46 -31 -45 -37 2 -5 28 -23 58 -39 l55 -30 57
33 c32 18 55 36 52 41 -9 14 -97 60 -114 59 -9 0 -37 -12 -63 -27z"/>
<path d="M2073 1449 c-29 -17 -53 -34 -53 -38 0 -4 25 -21 56 -39 l56 -32 59
33 c32 17 59 34 59 37 0 7 -108 70 -118 70 -4 0 -31 -14 -59 -31z"/>
<path d="M1403 1427 c-29 -17 -53 -34 -53 -37 0 -3 25 -20 56 -38 l56 -32 59
32 c32 18 59 35 59 38 0 7 -108 70 -118 70 -4 -1 -31 -15 -59 -33z"/>
<path d="M1676 1403 l-59 -36 59 -33 c32 -19 62 -34 66 -34 14 0 117 64 112
71 -4 7 -111 70 -116 68 -2 0 -30 -17 -62 -36z"/>
<path d="M2232 1361 c-35 -21 -63 -42 -61 -47 2 -10 105 -74 119 -74 13 0 150
81 150 89 0 9 -115 71 -131 70 -8 0 -42 -18 -77 -38z"/>
<path d="M1913 1357 c-29 -17 -50 -34 -48 -38 3 -4 30 -21 59 -38 l55 -31 55
32 c31 18 56 36 56 40 0 9 -101 68 -115 67 -5 0 -33 -15 -62 -32z"/>
<path d="M1285 1358 c-11 -6 -37 -22 -59 -36 l-39 -24 62 -35 61 -34 61 34 62
35 -39 24 c-42 27 -81 48 -86 48 -2 0 -12 -6 -23 -12z"/>
<path d="M1537 1321 c-73 -42 -73 -43 -7 -80 l60 -32 55 31 c30 17 55 35 55
40 0 6 -103 70 -112 70 -2 0 -25 -13 -51 -29z"/>
<path d="M1763 1270 c-29 -17 -53 -34 -53 -38 0 -4 26 -21 58 -38 l57 -32 48
28 c74 42 75 44 14 79 -30 17 -58 31 -63 31 -5 0 -33 -14 -61 -30z"/>
<path d="M2063 1262 c-35 -20 -63 -39 -63 -42 0 -3 28 -22 63 -42 l62 -36 67
36 c36 20 65 39 62 43 -3 6 -123 80 -127 79 -1 -1 -30 -17 -64 -38z"/>
<path d="M1905 1170 c-27 -16 -54 -31 -60 -33 -17 -6 10 -30 68 -61 l55 -29
61 37 c33 21 61 40 61 44 0 8 -114 72 -127 72 -4 0 -30 -14 -58 -30z"/>
<path d="M1732 1071 c-69 -42 -70 -40 16 -87 l52 -29 65 35 c36 19 65 38 65
42 0 6 -123 79 -132 78 -1 -1 -31 -18 -66 -39z"/>
</g>
</svg>
